<svg xmlns="http://www.w3.org/2000/svg" viewBox="0 0 128 128">
  <defs>
    <linearGradient id="g" x1="18" y1="12" x2="110" y2="116" gradientUnits="userSpaceOnUse">
      <stop stop-color="#18b99f"/>
      <stop offset="1" stop-color="#087d72"/>
    </linearGradient>
  </defs>
  <rect width="128" height="128" rx="30" fill="url(#g)"/>
  <path d="M32 34h25c12 0 20 6 20 17 0 7-4 12-10 15 8 2 13 8 13 16 0 12-9 20-23 20H32V34Zm22 27c7 0 11-3 11-9s-4-9-11-9H44v18h10Zm2 31c8 0 12-4 12-10s-4-10-12-10H44v20h12Z" fill="#fff"/>
  <path d="M86 38h10v34H86z" fill="#ffe5a6"/>
  <circle cx="91" cy="88" r="7" fill="#ffb326"/>
</svg>
